<svg width="72" height="81" viewBox="0 0 72 81" fill="none" xmlns="http://www.w3.org/2000/svg">
<g opacity="0.5">
<path d="M44.5633 52.212C39.2635 55.2376 38.2689 64.8992 38.434 69.3519C39.9823 71.3701 44.5093 75.5226 50.2306 75.9869C57.3824 76.5672 61.7749 71.4201 64.0019 68.4996C66.8976 64.7022 68.3255 60.7094 68.3255 60.7094L71.9822 50.4839L62.7576 48.9426C58.9011 48.7717 49.8631 49.1864 44.5633 52.212Z" fill="white"/>
<path d="M38.8338 34.7074C36.323 37.0249 36.996 42.4212 37.6464 44.8296C38.745 45.7359 41.7372 47.4318 44.9171 46.9652C48.8919 46.382 50.6407 43.0212 51.4882 41.1477C52.5903 38.7116 52.8669 36.3536 52.8669 36.3536L53.5753 30.3148L48.3487 30.6345C46.2232 31.0265 41.3445 32.3899 38.8338 34.7074Z" fill="white"/>
<path d="M36.1942 18.5675C33.8254 20.2948 33.866 24.9606 34.1825 27.0776C35.0294 27.9585 37.4122 29.6995 40.1685 29.6159C43.6139 29.5113 45.4364 26.8196 46.3438 25.3064C47.5237 23.3389 47.9923 21.3564 47.9923 21.3564L49.1925 16.2794L44.7062 16.0357C42.8559 16.1599 38.563 16.8402 36.1942 18.5675Z" fill="white"/>
<path d="M25.0879 12.6447C25.441 15.555 29.5345 17.7944 31.5371 18.5503C32.7192 18.2404 35.401 17.0088 36.6719 14.5615C38.2605 11.5025 36.7989 8.59887 35.9202 7.06887C34.7777 5.07944 33.2753 3.70369 33.2753 3.70369L29.4278 0.180422L27.0277 3.97855C26.234 5.6546 24.7348 9.73429 25.0879 12.6447Z" fill="white"/>
<path d="M23.8407 29.7026C26.2807 31.3279 30.6445 29.6759 32.5214 28.6468C33.055 27.5475 33.8644 24.7096 32.8326 22.1523C31.5429 18.9557 28.3869 18.1767 26.6533 17.8486C24.3991 17.4221 22.3769 17.668 22.3769 17.668L17.1981 18.2979L18.5212 22.5916C19.2777 24.2848 21.4007 28.0774 23.8407 29.7026Z" fill="white"/>
<path d="M21.3948 49.0764C25.1291 50.9866 31.0609 47.9236 33.56 46.1534C34.1383 44.5035 34.8237 40.3372 32.9382 36.8715C30.5813 32.5393 25.9679 31.9492 23.4502 31.767C20.1764 31.5301 17.3424 32.211 17.3424 32.211L10.0848 33.9548L12.6688 39.8408C14.0215 42.1234 17.6604 47.1662 21.3948 49.0764Z" fill="white"/>
<path d="M15.3024 76.1725C20.5854 79.2272 29.4332 75.2204 33.1967 72.8352C34.1605 70.4811 35.4679 64.4789 32.9874 59.3023C29.8869 52.8315 23.2279 51.6291 19.5833 51.1761C14.8442 50.587 10.6756 51.3644 10.6756 51.3644L3.80098e-05 53.3554L3.31441 62.1009C5.10912 65.5186 10.0193 73.1178 15.3024 76.1725Z" fill="white"/>
<path d="M10.444 58.248C10.444 58.248 18.5285 59.6455 22.944 62.248C27.9397 65.1926 33.444 72.748 33.444 72.748M38.444 70.248C38.444 70.248 43.6412 61.5125 48.944 58.248C53.9462 55.1686 63.444 54.248 63.444 54.248M20.944 38.748L33.444 45.248M46.444 37.248L38.444 45.248" stroke="#5D9287" stroke-width="0.933201"/>
</g>
</svg>
