<svg width="102" height="98" viewBox="0 0 102 98" fill="none" xmlns="http://www.w3.org/2000/svg">
<path d="M65.2523 45.6942C66.0489 51.7447 74.6168 56.3193 78.8012 57.8504C81.2551 57.1803 86.8112 54.56 89.4048 49.4391C92.6467 43.0381 89.5431 37.0252 87.6817 33.8591C85.2614 29.7423 82.1052 26.9105 82.1052 26.9105L74.022 19.6582L69.1066 27.6148C67.4899 31.1203 64.4558 39.6438 65.2523 45.6942Z" fill="#0A5359"/>
<path d="M46.881 44.3784C48.0768 47.5791 53.3268 48.9969 55.8024 49.3057C57.0568 48.6314 59.7584 46.5028 60.529 43.3826C61.4924 39.4825 59.0426 36.5926 57.6287 35.0994C55.7903 33.1579 53.712 32.0101 53.712 32.0101L48.3896 29.0705L46.709 34.0298C46.268 36.1457 45.6851 41.1777 46.881 44.3784Z" fill="#0A5359"/>
<path d="M30.9414 40.718C31.6446 43.5641 35.9793 45.291 38.0587 45.7987C39.1945 45.3479 41.7073 43.8004 42.6723 41.2172C43.8785 37.9881 42.0759 35.283 41.0183 33.8708C39.6431 32.0344 37.9851 30.8509 37.9851 30.8509L33.739 27.8198L31.8168 31.8807C31.2321 33.6406 30.2383 37.8719 30.9414 40.718Z" fill="#0A5359"/>
<path d="M21.2583 48.7594C24.0861 49.5332 27.7073 46.5907 29.1644 45.0227C29.3245 43.8112 29.1986 40.8628 27.4137 38.7608C25.1826 36.1333 21.942 36.3882 20.1933 36.623C17.9195 36.9283 16.0778 37.7988 16.0778 37.7988L11.3611 40.0281L13.9695 43.6864C15.2209 45.055 18.4306 47.9857 21.2583 48.7594Z" fill="#0A5359"/>
<path d="M36.5778 56.3651C39.005 54.721 39.1261 50.0566 38.8833 47.9299C38.0674 47.0201 35.7463 45.1976 32.9888 45.1856C29.5418 45.1706 27.6271 47.7976 26.6678 49.2784C25.4205 51.2038 24.8834 53.1689 24.8834 53.1689L23.5079 58.2013L27.9831 58.6003C29.8366 58.5403 34.1505 58.0093 36.5778 56.3651Z" fill="#0A5359"/>
<path d="M53.5876 65.9562C56.7682 63.2216 56.176 56.5721 55.4824 53.5891C54.1737 52.4297 50.5761 50.2196 46.6547 50.6544C41.7529 51.1979 39.462 55.2454 38.3411 57.5073C36.8836 60.4484 36.4422 63.3293 36.4422 63.3293L35.3118 70.7075L41.7379 70.5413C44.3626 70.1524 50.407 68.6908 53.5876 65.9562Z" fill="#0A5359"/>
<path d="M76.3671 81.8436C81.1929 78.1081 80.8298 68.4022 80.0451 64.0161C78.2303 62.2337 73.1683 58.7534 67.4381 59.0919C60.2754 59.515 56.6439 65.2247 54.8462 68.4273C52.5086 72.5916 51.6518 76.7446 51.6518 76.7446L49.4576 87.3803L58.8069 87.6195C62.6496 87.2506 71.5413 85.579 76.3671 81.8436Z" fill="#0A5359"/>
<path d="M57.9365 79.5623C57.9365 79.5623 62.2876 72.6067 66.3668 69.5034C70.982 65.9923 80.0579 63.7542 80.0579 63.7542M79.6345 58.1801C79.6345 58.1801 73.5133 50.0651 72.4967 43.9217C71.5377 38.1264 74.2775 28.9858 74.2775 28.9858M43.8558 62.4675L54.6003 53.3541M52.1109 38.2941L56.4913 48.7254" stroke="white" stroke-width="0.933201"/>
</svg>
