<svg width="119" height="105" viewBox="0 0 119 105" fill="none" xmlns="http://www.w3.org/2000/svg">
<path d="M50.7483 52.7239C51.2182 46.6394 43.7794 40.3942 40.0013 38.0322C37.462 38.1811 31.4846 39.5978 27.8896 44.0728C23.3958 49.6665 25.1911 56.1907 26.3586 59.6729C27.8767 64.2007 30.3803 67.6232 30.3803 67.6232L36.7918 76.3881L43.2442 69.6179C45.5498 66.5218 50.2785 58.8084 50.7483 52.7239Z" fill="#0A5359"/>
<path d="M68.452 57.8047C67.9428 54.426 63.0986 51.9548 60.7402 51.1415C59.3736 51.5422 56.2907 53.0672 54.8924 55.961C53.1446 59.5782 54.9449 62.9117 56.02 64.6645C57.4179 66.9438 59.2144 68.496 59.2144 68.496L63.8152 72.4712L66.4835 67.9657C67.3519 65.9865 68.9612 61.1833 68.452 57.8047Z" fill="#0A5359"/>
<path d="M83.2924 64.6773C83.192 61.7473 79.3073 59.1626 77.3775 58.2365C76.1731 58.4431 73.3949 59.4384 71.9173 61.7668C70.0704 64.6772 71.2756 67.6962 72.0188 69.2964C72.9852 71.3771 74.3631 72.8775 74.3631 72.8775L77.8919 76.72L80.6111 73.1434C81.5467 71.5422 83.3927 67.6073 83.2924 64.6773Z" fill="#0A5359"/>
<path d="M94.4271 58.8084C91.8201 57.4675 87.6694 59.5989 85.9199 60.8323C85.513 61.9846 85.0275 64.8954 86.3399 67.3207C87.9804 70.3523 91.2039 70.772 92.9633 70.9033C95.2511 71.074 97.2329 70.6026 97.2329 70.6026L102.308 69.3951L100.511 65.2772C99.5696 63.6797 97.0342 60.1494 94.4271 58.8084Z" fill="#0A5359"/>
<path d="M81.0081 48.2036C78.2937 49.3111 77.2121 53.85 77.0106 55.981C77.621 57.0396 79.5158 59.3021 82.2115 59.8832C85.581 60.6096 87.9969 58.4345 89.2413 57.1837C90.8593 55.5574 91.7905 53.7456 91.7905 53.7456L94.1754 49.1056L89.8791 47.7912C88.0531 47.4671 83.7226 47.096 81.0081 48.2036Z" fill="#0A5359"/>
<path d="M66.3453 35.307C62.6686 37.326 61.875 43.9545 61.9378 47.0164C62.9789 48.421 66.0427 51.3263 69.9693 51.7106C74.8776 52.1909 77.955 48.7036 79.5187 46.7219C81.552 44.1451 82.5788 41.4174 82.5788 41.4174L85.2082 34.4316L78.8863 33.2673C76.2379 33.106 70.0219 33.2881 66.3453 35.307Z" fill="#0A5359"/>
<path d="M47.3369 15.0586C41.8437 17.7171 40.195 27.2889 40.0572 31.7425C41.4648 33.8612 45.6992 38.3117 51.3758 39.1636C58.4716 40.2285 63.2037 35.3917 65.624 32.6293C68.771 29.0374 70.4668 25.1508 70.4668 25.1508L74.8098 15.1973L65.7112 13.0329C61.8752 12.6004 52.83 12.4001 47.3369 15.0586Z" fill="#0A5359"/>
<path d="M64.8993 21.0962C64.8993 21.0962 59.2058 27.0035 54.5738 29.1977C49.333 31.6802 39.9906 31.9961 39.9906 31.9961M39.254 37.5375C39.254 37.5375 43.5678 46.7415 43.2939 52.9624C43.0356 58.8309 38.4677 67.2087 38.4677 67.2087M75.147 40.7299L62.7522 47.4285M62.0785 62.6779L59.9464 51.5669" stroke="white" stroke-width="0.933201"/>
<path d="M30 35C21.866 36.5083 7.82479 40.14 10.426 51.2183C11.5185 55.8713 19.07 62.5549 21.5116 55.1033C22.5582 51.909 21.6158 46.7131 17.5841 45.8944C8.58406 44.0669 6.50096 57.1373 7.87098 62.9556C8.98053 67.6676 12.6808 64.9175 11.904 61.8456C11.2926 59.4274 8.73322 56.9667 6.16062 58.3922C3.53055 59.8496 1.69137 63.0231 2.04311 65.9978C2.40858 69.0886 4.80788 70.4962 7.19528 72" stroke="#0A5359" stroke-width="2.05349" stroke-linecap="round"/>
</svg>
