<svg width="46" height="51" viewBox="0 0 46 51" fill="none" xmlns="http://www.w3.org/2000/svg">
<path d="M27.8678 32.5382C24.5536 34.4302 23.9316 40.4722 24.0348 43.2567C25.0031 44.5188 27.834 47.1156 31.4119 47.4059C35.8843 47.7688 38.6312 44.5501 40.0238 42.7237C41.8347 40.349 42.7276 37.8521 42.7276 37.8521L45.0143 31.4575L39.2457 30.4936C36.834 30.3868 31.1821 30.6461 27.8678 32.5382Z" fill="#0A5359"/>
<path d="M24.2849 21.5916C22.7148 23.0409 23.1357 26.4155 23.5423 27.9216C24.2294 28.4884 26.1006 29.5489 28.0891 29.2571C30.5748 28.8924 31.6684 26.7907 32.1984 25.6191C32.8876 24.0957 33.0606 22.6211 33.0606 22.6211L33.5036 18.8447L30.2351 19.0446C28.9059 19.2898 25.855 20.1424 24.2849 21.5916Z" fill="#0A5359"/>
<path d="M22.6341 11.4984C21.1528 12.5786 21.1782 15.4964 21.3761 16.8202C21.9057 17.3711 23.3958 18.4599 25.1195 18.4076C27.2741 18.3422 28.4138 16.6589 28.9812 15.7126C29.7191 14.4822 30.0121 13.2425 30.0121 13.2425L30.7627 10.0675L27.9571 9.91516C26.8 9.99284 24.1155 10.4182 22.6341 11.4984Z" fill="#0A5359"/>
<path d="M15.6888 7.79455C15.9096 9.61456 18.4695 11.015 19.7218 11.4877C20.461 11.2939 22.1381 10.5237 22.9328 8.99329C23.9263 7.08027 23.0123 5.2645 22.4628 4.30771C21.7483 3.06361 20.8088 2.20328 20.8088 2.20328L18.4027 -1.20123e-05L16.9018 2.37517C16.4054 3.42329 15.4679 5.97454 15.6888 7.79455Z" fill="#0A5359"/>
<path d="M14.9089 18.4619C16.4348 19.4782 19.1637 18.4452 20.3375 17.8016C20.6712 17.1142 21.1773 15.3394 20.5321 13.7402C19.7255 11.7412 17.7519 11.2541 16.6678 11.0489C15.2582 10.7822 13.9936 10.936 13.9936 10.936L10.755 11.3299L11.5824 14.015C12.0554 15.0738 13.3831 17.4456 14.9089 18.4619Z" fill="#0A5359"/>
<path d="M13.3793 30.5773C15.7146 31.7718 19.4241 29.8564 20.9869 28.7494C21.3486 27.7176 21.7772 25.1122 20.598 22.9449C19.1241 20.2358 16.2392 19.8667 14.6647 19.7528C12.6174 19.6046 10.8451 20.0304 10.8451 20.0304L6.30655 21.121L7.92249 24.8018C8.76839 26.2292 11.044 29.3827 13.3793 30.5773Z" fill="#0A5359"/>
<path d="M9.56939 47.522C12.8732 49.4323 18.4062 46.9266 20.7597 45.435C21.3624 43.9629 22.18 40.2093 20.6288 36.9721C18.6899 32.9256 14.5257 32.1737 12.2465 31.8904C9.28288 31.522 6.67605 32.0082 6.67605 32.0082L1.01688e-05 33.2532L2.07267 38.7222C3.195 40.8595 6.26561 45.6117 9.56939 47.522Z" fill="#0A5359"/>
<path d="M6.53113 36.3128C6.53113 36.3128 11.5868 37.1867 14.3481 38.8143C17.4722 40.6557 20.9143 45.3805 20.9143 45.3805M24.0411 43.8171C24.0411 43.8171 27.2912 38.3543 30.6073 36.3128C33.7355 34.3871 39.6749 33.8114 39.6749 33.8114M13.0974 24.1184L20.9143 28.1832M29.0439 23.1804L24.0411 28.1832" stroke="white" stroke-width="0.583582"/>
</svg>
